<!DOCTYPE svg PUBLIC "-//W3C//DTD SVG 1.1//EN" "http://www.w3.org/Graphics/SVG/1.1/DTD/svg11.dtd">
<!-- Uploaded to: SVG Repo, www.svgrepo.com, Transformed by: SVG Repo Mixer Tools -->
<svg width="800px" height="800px" viewBox="-6.96 -6.96 37.92 37.92" fill="none" xmlns="http://www.w3.org/2000/svg" stroke="#000000" stroke-width="0.00024000000000000003">
<g id="SVGRepo_bgCarrier" stroke-width="0">
<path transform="translate(-6.96, -6.96), scale(2.37)" fill="#ffffff" d="M9.166.33a2.25 2.25 0 00-2.332 0l-5.25 3.182A2.25 2.25 0 00.5 5.436v5.128a2.25 2.25 0 001.084 1.924l5.25 3.182a2.25 2.25 0 002.332 0l5.25-3.182a2.25 2.25 0 001.084-1.924V5.436a2.25 2.25 0 00-1.084-1.924L9.166.33z" strokewidth="0"/>
</g>
<g id="SVGRepo_tracerCarrier" stroke-linecap="round" stroke-linejoin="round"/>
<g id="SVGRepo_iconCarrier"> <path d="M21 16.5C21 18.433 19.433 20 17.5 20C15.567 20 14 18.433 14 16.5C14 14.567 15.567 13 17.5 13C19.433 13 21 14.567 21 16.5Z" fill="#2e395c"/> <path fill-rule="evenodd" clip-rule="evenodd" d="M1.25 10C1.25 9.58579 1.58579 9.25 2 9.25H22C22.4142 9.25 22.75 9.58579 22.75 10C22.75 10.4142 22.4142 10.75 22 10.75H2C1.58579 10.75 1.25 10.4142 1.25 10Z" fill="#2e395c"/> <path opacity="0.5" d="M4.1875 9.25L4.6138 7.54479C5.15947 5.36211 5.43231 4.27077 6.24609 3.63538C7.05988 3 8.1848 3 10.4347 3H13.5653C15.8152 3 16.9401 3 17.7539 3.63538C18.5677 4.27077 18.8405 5.36211 19.3862 7.54479L19.8125 9.25H4.1875Z" fill="#2e395c"/> <path d="M10 16.5C10 18.433 8.433 20 6.5 20C4.567 20 3 18.433 3 16.5C3 14.567 4.567 13 6.5 13C8.433 13 10 14.567 10 16.5Z" fill="#2e395c"/> <path opacity="0.5" d="M9.88379 17.3966C9.9594 17.1104 9.99968 16.8099 9.99968 16.5C9.99968 16.2272 9.96845 15.9616 9.90939 15.7067L10.323 15.4999C11.3787 14.972 12.6214 14.972 13.6771 15.4999L14.09 15.7064C14.0309 15.9614 13.9997 16.227 13.9997 16.5C13.9997 16.8098 14.0399 17.1101 14.1155 17.3961L13.0063 16.8415C12.3728 16.5248 11.6273 16.5248 10.9938 16.8415L9.88379 17.3966Z" fill="#2e395c"/> </g>
</svg>